<?xml version="1.0" encoding="UTF-8" standalone="no"?>
<svg
	fill="none"
	viewBox="0 0 1033.8433 1033.8433"
	version="1.1"
	width="1033.8433"
	height="1033.8433"
	xmlns="http://www.w3.org/2000/svg"
	xmlns:svg="http://www.w3.org/2000/svg"
>
  <circle
		fill="#0a7aff"
		cx="516.92163"
		cy="516.92163"
		r="516.92163"
	/>
  <path
		fill="#ffffff"
		d="m 356.42659,301.04339 c 64.96458,48.77232 134.83742,147.66273 160.49504,200.72878 25.65762,-53.06505 95.53046,-151.95646 160.49504,-200.72978 46.87486,-35.18981 122.82715,-62.41967 122.82715,24.22604 0,17.30461 -9.92126,145.36524 -15.74034,166.15749 -20.22661,72.28008 -93.93029,90.71598 -159.49344,79.55767 114.60084,19.50335 143.7531,84.10879 80.79272,148.71423 -119.57394,122.69846 -171.86085,-30.78535 -185.2588,-70.11327 -2.45612,-7.20975 -3.60537,-10.58268 -3.62233,-7.71454 -0.017,-2.86814 -1.16621,0.50479 -3.62233,7.71454 -13.39795,39.32792 -65.68486,192.81173 -185.2588,70.11327 -62.96038,-64.60544 -33.80912,-129.21088 80.79271,-148.71522 -65.56314,11.1583 -139.26682,-7.27759 -159.49343,-79.55767 -5.81908,-20.79226 -15.74034,-148.85389 -15.74034,-166.15749 0,-86.64472 75.95329,-59.41586 122.82715,-24.22405 z"
	/>
</svg>
